<svg xmlns="http://www.w3.org/2000/svg" viewBox="0 0 88 88"><g data-name="Hand Growth"><path d="M59.002 15a8 8 0 1 0-8 8 8.01 8.01 0 0 0 8-8zm-9 5v-.145a2.848 2.848 0 0 1-2-2.71V17a1 1 0 0 1 2 0v.145a.856.856 0 0 0 .854.855h.292a.854.854 0 0 0 .381-1.618l-1.95-.975a2.844 2.844 0 0 1 .423-5.262V10a1 1 0 0 1 2 0v.145a2.849 2.849 0 0 1 2 2.71V13a1 1 0 1 1-2 0v-.145a.856.856 0 0 0-.854-.855h-.292a.854.854 0 0 0-.382 1.618l1.95.975a2.844 2.844 0 0 1-.422 5.262V20a1 1 0 1 1-2 0z" style="fill:#FCFCFC"/><circle cx="9" cy="70" r="1" style="fill:#FCFCFC"/><path d="M3 64v22a1.003 1.003 0 0 0 1 1h10V63H4a1.003 1.003 0 0 0-1 1zm6 3a3 3 0 1 1-3 3 3.009 3.009 0 0 1 3-3zM84.32 69.36a5.08 5.08 0 0 0-5.94-2.34l-15.5 4.82A7.515 7.515 0 0 1 55.5 78H37a1 1 0 0 1 0-2h18.5a5.5 5.5 0 0 0 0-11H37.47l-.67-.81a14.436 14.436 0 0 0-20.1-2.03l-.7.56V87h36.58a12.76 12.76 0 0 0 4.69-.88l24.46-9.47a5.097 5.097 0 0 0 2.59-7.29z" style="fill:#FCFCFC"/><path d="M31 40a41.718 41.718 0 0 0 6.69-.62c.82-.13 1.57-.24 2.26-.3-3-1.89-6-3.08-7.95-3.08a1 1 0 0 1 0-2h.003c5.211.002 17.995 8.536 17.995 16 0 .007.004.013.004.02v1.003A26.723 26.723 0 0 0 32.2 58.33a16.388 16.388 0 0 1 6.14 4.58l.07.09H55.5a7.512 7.512 0 0 1 7.46 6.72l11.89-3.69c-3.113-8.601-12.164-14.636-22.848-14.995V47c0-7.464 12.784-15.998 17.995-16H70a1 1 0 0 1 0 2c-1.95 0-4.95 1.19-7.95 3.08.69.06 1.44.17 2.26.3A41.718 41.718 0 0 0 71 37c7.11 0 11.75-13.11 11.95-13.67a1.01 1.01 0 0 0-.44-1.19.994.994 0 0 0-1.26.2c-.02.03-2.62 2.73-9.15 1.53-10.083-1.86-14.393 9.606-14.986 11.33a25.244 25.244 0 0 0-5.112 5.702V28.949a14 14 0 1 0-2 0v14.96a25.236 25.236 0 0 0-5.116-5.709c-.593-1.724-4.903-13.19-14.986-11.33-6.53 1.2-9.13-1.5-9.15-1.53a.994.994 0 0 0-1.26-.2 1.01 1.01 0 0 0-.44 1.19C19.25 26.89 23.89 40 31 40zm10.002-25a10 10 0 1 1 10 10 10.011 10.011 0 0 1-10-10z" style="fill:#FCFCFC"/></g></svg>